<svg height="512pt" viewBox="-61 0 512 512" width="512pt" xmlns="http://www.w3.org/2000/svg"><path d="m337.5 114c-6.898438 3.898438-14.699219 6-22.5 6-24.902344 0-45-20.101562-45-45 0-.902344 1.800781-15 2.101562-15.902344l-9-5.097656c-14.101562-8.101562-23.101562-22.800781-23.101562-39v-15h-210v285h330v-184.199219zm0 0" fill="#b35f49"/><path d="m360 100.800781v184.199219h-165v-285h45v15c0 16.199219 9 30.898438 23.101562 39l9 5.097656c-.300781.902344-2.101562 15-2.101562 15.902344 0 24.898438 20.097656 45 45 45 7.800781 0 15.601562-2.101562 22.5-6zm0 0" fill="#99503d"/><path d="m270 134.617188v15.382812h-60v-60h31.519531c3.707031 18.191406 14.1875 33.796875 28.480469 44.617188zm0 0" fill="#b35f49"/><path d="m120 90h60v60h-60zm0 0" fill="#c6715a"/><path d="m225.601562 60h-135.601562v195h-30v-225h151.5c2.398438 11.101562 7.199219 21 14.101562 30zm0 0" fill="#c6715a"/><path d="m225.601562 60h-30.601562v-30h16.5c2.398438 11.101562 7.199219 21 14.101562 30zm0 0" fill="#b35f49"/><path d="m120 180h60v75h-60zm0 0" fill="#c6715a"/><path d="m210 180h60v75h-60zm0 0" fill="#b35f49"/><path d="m300 255v-106.519531c4.847656.992187 9.863281 1.519531 15 1.519531 5.054688 0 10.09375-.511719 15-1.507812v106.507812zm0 0" fill="#b35f49"/><path d="m360 270v242h-330v-242l30-15h270zm0 0" fill="#ff641a"/><path d="m360 270v242h-165v-257h135zm0 0" fill="#f03800"/><path d="m90 361v91h210v-91zm0 0" fill="#fde4e4"/><path d="m195 361h105v91h-105zm0 0" fill="#fcced3"/><path d="m345 240h-300c-24.902344 0-45 20.097656-45 45v15h135c24.601562 0 46.199219-12 60-30.601562 13.800781 18.601562 35.398438 30.601562 60 30.601562h135v-15c0-24.902344-20.097656-45-45-45zm0 0" fill="#fff5f5"/><path d="m390 285v15h-135c-24.601562 0-46.199219-12-60-30.601562v-29.398438h150c24.902344 0 45 20.097656 45 45zm0 0" fill="#efe2dd"/></svg>